<svg xmlns="http://www.w3.org/2000/svg" xmlns:xlink="http://www.w3.org/1999/xlink" width="50" zoomAndPan="magnify" viewBox="0 0 37.5 37.499999" height="50" preserveAspectRatio="xMidYMid meet" version="1.0"><defs><clipPath id="da85438045"><path d="M 7 3 L 32 3 L 32 33 L 7 33 Z M 7 3 " clip-rule="nonzero"/></clipPath><clipPath id="b0af58b63f"><path d="M 11.109375 1.121094 L 36.742188 14.394531 L 23.46875 40.027344 L -2.164062 26.753906 Z M 11.109375 1.121094 " clip-rule="nonzero"/></clipPath><clipPath id="0991641caa"><path d="M 11.109375 1.121094 L 36.742188 14.394531 L 23.46875 40.027344 L -2.164062 26.753906 Z M 11.109375 1.121094 " clip-rule="nonzero"/></clipPath></defs><g clip-path="url(#da85438045)"><g clip-path="url(#b0af58b63f)"><g clip-path="url(#0991641caa)"><path fill="#e6372b" d="M 15.710938 3.507812 C 14.632812 2.949219 13.351562 3.199219 12.558594 4.050781 C 11.289062 3.476562 9.773438 3.976562 9.117188 5.246094 C 8.445312 6.542969 8.957031 8.144531 10.253906 8.816406 L 13.964844 10.738281 C 13.996094 12.804688 14.792969 14.707031 16.28125 16.03125 L 14.402344 17.191406 C 14.242188 17.289062 14.152344 17.46875 14.171875 17.65625 L 14.363281 19.378906 C 14.425781 20.027344 15.40625 19.921875 15.324219 19.277344 L 15.164062 17.851562 L 17.101562 16.660156 C 17.289062 16.777344 17.476562 16.894531 17.675781 16.996094 L 18.203125 17.269531 L 16.539062 18.296875 C 16.378906 18.394531 16.292969 18.578125 16.3125 18.761719 L 16.503906 20.484375 C 16.5625 21.136719 17.542969 21.027344 17.460938 20.382812 L 17.300781 18.957031 L 19.203125 17.789062 L 20.34375 18.378906 L 18.679688 19.40625 C 18.519531 19.503906 18.429688 19.683594 18.449219 19.871094 L 18.640625 21.59375 C 18.703125 22.242188 19.679688 22.136719 19.601562 21.492188 L 19.441406 20.066406 L 21.515625 18.789062 C 22.101562 18.84375 22.714844 18.691406 23.277344 18.386719 C 24.113281 17.933594 24.871094 17.136719 25.402344 16.113281 C 25.933594 15.089844 26.140625 14.015625 26.03125 13.066406 C 25.917969 12.121094 25.464844 11.265625 24.65625 10.847656 L 15.675781 6.199219 C 15.441406 6.074219 15.148438 6.167969 15.027344 6.40625 C 14.796875 6.847656 14.617188 7.292969 14.460938 7.738281 L 13.71875 7.355469 C 12.957031 6.960938 12.640625 6.085938 12.910156 5.308594 L 13.742188 5.742188 C 14.3125 6.035156 14.753906 5.179688 14.183594 4.886719 L 13.480469 4.519531 C 13.976562 4.140625 14.667969 4.050781 15.269531 4.363281 L 27.03125 10.453125 C 27.601562 10.746094 28.042969 9.890625 27.472656 9.597656 Z M 12.03125 4.878906 C 11.535156 6.128906 12.058594 7.582031 13.277344 8.210938 L 14.1875 8.683594 C 14.109375 9.015625 14.054688 9.347656 14.015625 9.679688 L 10.695312 7.960938 C 9.859375 7.527344 9.546875 6.511719 9.972656 5.6875 C 10.367188 4.929688 11.242188 4.597656 12.03125 4.878906 Z M 26.929688 12.621094 C 26.953125 12.730469 26.972656 12.84375 26.984375 12.957031 C 27.125 14.125 26.867188 15.378906 26.257812 16.554688 C 25.648438 17.734375 24.769531 18.671875 23.734375 19.234375 C 23.394531 19.421875 23.019531 19.5625 22.632812 19.65625 C 22.992188 20.234375 23.269531 20.859375 23.449219 21.507812 C 25.835938 20.929688 28.554688 19.25 30.078125 15.785156 C 29.269531 14.527344 28.207031 13.4375 26.929688 12.621094 Z M 30.660156 16.800781 C 28.953125 20.140625 26.144531 21.855469 23.640625 22.453125 C 23.746094 23.246094 23.703125 24.050781 23.5 24.8125 C 26.410156 25.652344 29.648438 24.976562 31.777344 22.757812 C 31.988281 20.691406 31.574219 18.621094 30.660156 16.800781 Z M 31.503906 24.292969 C 29.144531 26.097656 26.007812 26.554688 23.171875 25.722656 C 23.140625 25.789062 23.113281 25.859375 23.078125 25.925781 C 22.789062 26.484375 22.421875 26.960938 22 27.355469 C 22.605469 28.011719 23.3125 28.558594 24.097656 28.964844 C 25.296875 29.585938 26.640625 29.875 28.011719 29.8125 C 29.082031 28.910156 29.992188 27.777344 30.683594 26.441406 C 31.046875 25.742188 31.3125 25.023438 31.503906 24.292969 Z M 13.734375 22.007812 C 13.382812 21.824219 13 21.6875 12.601562 21.597656 C 12.433594 21.558594 12.257812 21.613281 12.144531 21.738281 C 11.039062 22.949219 10.664062 24.65625 11.164062 26.21875 C 11.3125 26.699219 11.554688 27.140625 11.84375 27.535156 C 11.351562 27.527344 10.855469 27.585938 10.375 27.742188 C 8.8125 28.234375 7.632812 29.527344 7.285156 31.125 C 7.246094 31.292969 7.304688 31.46875 7.429688 31.582031 C 8.640625 32.683594 10.34375 33.0625 11.902344 32.566406 C 13.152344 32.167969 14.148438 31.253906 14.679688 30.082031 L 15.976562 30.753906 C 16.046875 30.789062 16.117188 30.820312 16.183594 30.851562 C 16.050781 30 16.085938 29.238281 16.28125 28.535156 C 16.050781 28.472656 15.824219 28.402344 15.59375 28.324219 C 16.214844 27.226562 16.375 25.910156 15.984375 24.683594 C 15.613281 23.511719 14.792969 22.558594 13.734375 22.007812 Z M 26.722656 30.734375 C 25.652344 30.625 24.613281 30.320312 23.652344 29.824219 C 22.742188 29.351562 21.929688 28.714844 21.234375 27.949219 C 20.742188 28.257812 20.199219 28.472656 19.617188 28.609375 C 20.023438 29.875 20.472656 31.054688 22.011719 32.164062 C 23.714844 32.082031 25.316406 31.585938 26.722656 30.734375 Z M 18.652344 28.761719 C 18.1875 28.796875 17.710938 28.777344 17.226562 28.714844 C 17 29.457031 16.992188 30.265625 17.261719 31.335938 C 18.351562 31.765625 19.4375 32.027344 20.496094 32.125 C 19.425781 31.027344 18.992188 29.832031 18.652344 28.761719 " fill-opacity="1" fill-rule="nonzero"/></g></g></g></svg>